<svg clip-rule="evenodd" fill-rule="evenodd" height="512" image-rendering="optimizeQuality" shape-rendering="geometricPrecision" text-rendering="geometricPrecision" viewBox="0 0 1707 1707" width="512" xmlns="http://www.w3.org/2000/svg"><g id="Layer_x0020_1"><path d="m1576 1560h-1445c-72 0-131-65-131-145v-599c0-80 59-145 131-145h1445c72 0 131 65 131 145v599c0 80-59 145-131 145zm-1445-849c-50 0-91 47-91 105v599c0 58 41 105 91 105h1445c50 0 91-47 91-105v-599c0-58-41-105-91-105z"/><path d="m397 1560h-211c-11 0-20-9-20-20v-849c0-11 9-20 20-20h211c11 0 20 9 20 20v849c0 11-9 20-20 20zm-191-40h171v-809h-171z"/><path d="m1520 1560h-210c-11 0-20-9-20-20v-849c0-11 9-20 20-20h210c11 0 20 9 20 20v849c0 11-9 20-20 20zm-190-40h170v-809h-170z"/><path d="m1520 711h-1334c-11 0-20-9-20-20v-385c0-88 59-159 131-159h1112c73 0 131 71 131 159v385c0 11-9 20-20 20zm-1314-40h1294v-365c0-66-40-119-91-119h-1112c-50 0-91 53-91 119z"/><path d="m891 711c-11 0-20-9-20-20 0-23-4-100 4-111l52-69-30-195h-138l-31 195c13 17 56 69 56 81v99c0 26-40 26-40 0v-92c-4-14-59-67-56-86l34-220c1-10 10-17 20-17h172c10 0 18 7 19 17l35 220c3 19-53 72-57 86v92c0 11-9 20-20 20z"/><path d="m453 711h-182c-14 0-24-14-19-27l62-169c-59-97-9-224 101-253 15-4 29 11 24 26l-45 123c-1 1 0 3 2 3l118 44c2 0 3-1 4-2l44-123c6-15 26-18 35-5 65 93 23 223-85 259l-40 111c-3 8-10 13-19 13zm-154-40h140l39-107c2-6 8-11 14-13 70-18 111-90 92-159l-29 78c-8 22-33 33-55 25l-118-43c-22-8-34-33-26-55l29-78c-59 41-74 122-33 182 4 5 5 12 3 18z"/><path d="m1256 559-92-16c-7-1-13-6-15-13l-31-84c-2-7-1-14 4-20l57-68c5-6 12-8 19-7l88 15c7 2 13 7 16 13l30 85c3 6 1 14-3 19l-58 69c-4 4-9 7-15 7zm-74-53 66 11 43-51-23-62-66-12-42 51z"/><path d="m1378 711h-133c-9 0-16-5-19-13l-24-65c-186-25-213-283-38-347 175-63 320 152 193 290l41 115c0 11-9 20-20 20zm-119-40h90l-34-93c-2-8 0-16 6-22 110-103-2-283-143-232s-112 261 40 270c8 0 14 5 17 13z"/><path d="m879 1440h-37c-32 0-58-26-58-58v-31c-6-2-12-5-19-7-19 19-33 38-62 38-30 0-45-21-67-43s-22-59 0-81l22-22c-3-6-6-12-8-19h-31c-31 0-57-25-57-57v-38c0-31 26-57 57-57h31c2-6 5-13 8-19l-22-21c-22-23-22-59 0-82 22-22 37-43 67-43 29 0 43 19 62 39 7-3 13-6 19-8v-31c0-32 26-57 58-57h37c32 0 57 25 57 57v31c7 2 13 5 19 8 20-20 33-39 62-39 31 0 46 21 68 43 22 23 22 59 0 82l-22 21c3 6 5 13 7 19h31c32 0 58 26 58 57v38c0 32-26 57-58 57h-31c-2 7-4 13-7 19 20 20 38 33 38 62 0 30-21 45-43 67-22 23-59 23-81 0l-22-21c-6 2-12 5-19 7v31c0 32-25 58-57 58zm-117-141c9 0 23 12 48 19 33 9-6 82 32 82 62 0 54 6 54-63 0-22 22-18 53-35s54 62 81 35c44-44 43-34-6-83-15-15 3-29 13-62 9-34 82 6 82-32 0-62 6-55-63-55-22 0-18-22-35-53s62-54 35-80c-44-44-35-43-83 5-15 15-28-3-62-12-34-10 6-82-32-82-62 0-55-6-55 62 0 22-22 18-53 36-30 17-54-62-80-36-44 44-43 35 5 83 16 16-3 29-12 62-10 34-82-5-82 32 0 63-6 55 63 55 21 0 18 22 35 53s-62 54-36 81c44 43 35 43 84-6 3-4 8-6 14-6z"/><path d="m860 1274c-73 0-132-60-132-133s59-132 132-132 133 59 133 132-60 133-133 133zm0-225c-51 0-92 41-92 92s41 92 92 92 93-41 93-92-42-92-93-92z"/><path d="m166 1520v-809h-35c-50 0-91 47-91 105v599c0 58 41 105 91 105z" fill="#58595b"/><path d="m602 1122c0 63-6 55 63 55 21 0 18 22 35 53s-62 54-36 81c44 43 35 43 84-6 3-4 8-6 14-6 9 0 23 12 48 19 33 9-6 82 32 82 62 0 54 6 54-63 0-22 22-18 53-35s54 62 81 35c44-44 43-34-6-83-15-15 3-29 13-62 9-34 82 6 82-32 0-62 6-55-63-55-22 0-18-22-35-53s62-54 35-80c-44-44-35-43-83 5-15 15-28-3-62-12-34-10 6-82-32-82-62 0-55-6-55 62 0 22-22 18-53 36-30 17-54-62-80-36-44 44-43 35 5 83 16 16-3 29-12 62-10 34-82-5-82 32zm258 152c-73 0-132-60-132-133s59-132 132-132 133 59 133 132-60 133-133 133z" fill="#e6e7e9"/><path d="m768 1141c0 51 41 92 92 92s93-41 93-92-42-92-93-92-92 41-92 92z" fill="#58595b"/><path d="m1330 711v809h170v-809h-122z" fill="#f9c91d"/><path d="m1540 711v809h36c50 0 91-47 91-105v-599c0-58-41-105-91-105z" fill="#58595b"/><path d="m1290 1520v-809h-45-354-438-36v809zm-273-620c31 0 46 21 68 43 22 23 22 59 0 82l-22 21c3 6 5 13 7 19h31c32 0 58 26 58 57v38c0 32-26 57-58 57h-31c-2 7-4 13-7 19 20 20 38 33 38 62 0 30-21 45-43 67-22 23-59 23-81 0l-22-21c-6 2-12 5-19 7v31c0 32-25 58-57 58h-37c-32 0-58-26-58-58v-31c-6-2-12-5-19-7-19 19-33 38-62 38-30 0-45-21-67-43s-22-59 0-81l22-22c-3-6-6-12-8-19h-31c-31 0-57-25-57-57v-38c0-31 26-57 57-57h31c2-6 5-13 8-19l-22-21c-22-23-22-59 0-82 22-22 37-43 67-43 29 0 43 19 62 39 7-3 13-6 19-8v-31c0-32 26-57 58-57h37c32 0 57 25 57 57v31c7 2 13 5 19 8 20-20 33-39 62-39z" fill="#58595b"/><path d="m482 671h262v-72c-4-14-59-67-56-86l34-220c1-10 10-17 20-17h172c10 0 18 7 19 17l35 220c3 19-53 72-57 86v72h305l-14-38c-186-25-213-283-38-347 175-63 320 152 193 290l34 95h109v-365c0-66-40-119-91-119h-1112c-50 0-91 53-91 119v365h51l57-156c-59-97-9-224 101-253 15-4 29 11 24 26l-45 123c-1 1 0 3 2 3l118 44c2 0 3-1 4-2l44-123c6-15 26-18 35-5 65 93 23 223-85 259z" fill="#ffbf64"/><g fill="#ccc"><path d="m439 671 39-107c2-6 8-11 14-13 70-18 111-90 92-159l-29 78c-8 22-33 33-55 25l-118-43c-22-8-34-33-26-55l29-78c-59 41-74 122-33 182 4 5 5 12 3 18l-56 152h98z"/><path d="m728 511c13 17 56 69 56 81v79h86c0-32-1-83 5-91l52-69-30-195h-138z"/><path d="m1178 324c-141 51-112 261 40 270 8 0 14 5 17 13l24 64h51 39l-34-93c-2-8 0-16 6-22 110-103-2-283-143-232zm78 235-92-16c-7-1-13-6-15-13l-31-84c-2-7-1-14 4-20l57-68c5-6 12-8 19-7l88 15c7 2 13 7 16 13l30 85c3 6 1 14-3 19l-58 69c-4 4-9 7-15 7z"/></g><path d="m206 711v809h171v-809h-122z" fill="#f9c91d"/></g></svg>